<svg height="512pt" viewBox="0 -11 512 512" width="512pt" xmlns="http://www.w3.org/2000/svg">
    <g id="dislike">
        <path d="m512 197.332031c0-18.472656-10.582031-34.730469-26.304688-42.664062 3.242188-6.53125 4.972657-13.78125 4.972657-21.335938 0-18.496093-10.605469-34.773437-26.371094-42.707031 4.84375-9.707031 6.296875-20.949219 3.949219-32.171875-4.84375-21.523437-25.195313-37.121094-48.40625-37.121094h-195.839844c-19.753906 0-55.574219 8.492188-71.550781 24.449219-1.984375 2.003906-3.117188 4.714844-3.117188 7.550781v192c0 4.035157 2.285157 7.722657 5.890625 9.539063l17.984375 9 61.460938 133.121094v72.339843c0 3.222657 1.449219 6.273438 3.988281 8.320313.640625.511718 16.425781 13.015625 38.675781 13.015625 24.683594 0 64-39.0625 64-85.335938 0-29.246093-10.453125-65.535156-16.957031-85.332031h131.730469c28.609375 0 53.035156-21.183594 55.636719-48.257812 0-.039063 0-.0625 0-.105469 1.324218-15.230469-3.753907-29.84375-13.671876-40.726563 8.832032-8.789062 13.929688-20.753906 13.929688-33.578125zm0 0"
              fill="#ffcc80"/>
        <path d="m155.070312 15.808594c-9.941406-10.199219-23.335937-15.808594-37.738281-15.808594h-64c-29.417969 0-53.332031 23.914062-53.332031 53.332031v170.667969c0 29.417969 23.914062 53.332031 53.332031 53.332031h106.667969c5.886719 0 10.667969-4.777343 10.667969-10.664062v-213.335938c0-14.398437-5.613281-27.796875-15.597657-37.523437zm0 0"
              fill="#2196f3"/>
        <path d="m277.332031 490.667969c-22.164062 0-37.992187-12.480469-38.675781-12.992188-2.519531-2.027343-3.988281-5.101562-3.988281-8.34375v-72.339843l-61.441407-133.121094-2.558593-1.277344v4.074219c0 5.886719-4.78125 10.664062-10.667969 10.664062h-106.667969c-29.394531 0-53.332031-23.914062-53.332031-53.332031v-170.667969c0-29.417969 23.9375-53.332031 53.332031-53.332031h64c23.082031 0 42.773438 14.71875 50.199219 35.265625 17.726562-9.132813 41.640625-13.933594 56.46875-13.933594h195.820312c23.230469 0 43.5625 15.660157 48.316407 37.269531 2.457031 11.117188 1.003906 22.316407-3.839844 32.042969 15.765625 7.914063 26.371094 24.191407 26.371094 42.6875 0 7.554688-1.730469 14.785157-5.015625 21.3125 15.746094 7.9375 26.347656 24.191407 26.347656 42.6875 0 12.824219-5.097656 24.769531-13.867188 33.578125 9.964844 10.925782 15.039063 25.539063 13.632813 40.726563-2.496094 27.117187-26.921875 48.363281-55.636719 48.363281h-131.753906c6.503906 19.820312 16.957031 56.148438 16.957031 85.332031 0 46.273438-39.316406 85.335938-64 85.335938zm-21.332031-27.117188c4.414062 2.433594 12.136719 5.78125 21.332031 5.78125 11.691407 0 42.667969-29.054687 42.667969-64 0-37.546875-20.4375-91.667969-20.628906-92.203125-1.257813-3.261718-.8125-6.953125 1.195312-9.855468 1.984375-2.878907 5.269532-4.605469 8.789063-4.605469h146.792969c17.792968 0 32.898437-12.738281 34.390624-28.972657 1.128907-12.136718-4.695312-23.722656-15.191406-30.1875-3.261718-2.023437-5.203125-5.652343-5.054687-9.492187.148437-3.859375 2.367187-7.316406 5.78125-9.085937 9.003906-4.609376 14.59375-13.65625 14.59375-23.597657 0-13.460937-10.175781-24.765625-23.636719-26.300781-4.121094-.472656-7.597656-3.289062-8.917969-7.234375-1.300781-3.96875-.214843-8.296875 2.816407-11.136719 5.417968-5.117187 8.402343-11.988281 8.402343-19.328125 0-13.460937-10.175781-24.765625-23.636719-26.300781-4.117187-.472656-7.59375-3.289062-8.917968-7.234375-1.300782-3.96875-.210938-8.296875 2.816406-11.136719 7.019531-6.632812 9.835938-15.890625 7.722656-25.429687-2.625-11.945313-14.1875-20.5625-27.496094-20.5625h-195.820312c-17.34375 0-46.378906 8.125-56.449219 18.21875-3.070312 3.050781-7.636719 3.945312-11.625 2.300781-3.988281-1.640625-6.59375-5.542969-6.59375-9.855469 0-17.640625-14.355469-32-32-32h-64c-17.640625 0-32 14.359375-32 32v170.667969c0 17.644531 14.359375 32 32 32h96v-10.667969c0-3.6875 1.921875-7.125 5.058594-9.085937 3.132813-1.921875 7.082031-2.113282 10.367187-.449219l21.332032 10.667969c2.175781 1.085937 3.90625 2.878906 4.90625 5.054687l64 138.667969c.664062 1.40625 1.003906 2.941406 1.003906 4.480469zm0 0"/>
        <path d="m160 256c-5.886719 0-10.667969-4.777344-10.667969-10.667969v-192c0-5.886719 4.78125-10.664062 10.667969-10.664062s10.667969 4.777343 10.667969 10.664062v192c0 5.890625-4.78125 10.667969-10.667969 10.667969zm0 0"/>
    </g>
    <g id="like">
        <path d="m512 293.332031c0-12.820312-5.097656-24.789062-13.910156-33.578125 9.921875-10.878906 14.976562-25.515625 13.675781-40.832031-2.625-27.070313-27.050781-48.253906-55.660156-48.253906h-131.730469c6.503906-19.796875 16.957031-56.085938 16.957031-85.335938 0-46.269531-39.316406-85.332031-64-85.332031-22.269531 0-38.035156 12.5-38.675781 13.011719-2.539062 2.050781-3.988281 5.101562-3.988281 8.320312v72.34375l-61.460938 133.117188-17.984375 9.003906c-3.605468 1.8125-5.890625 5.503906-5.890625 9.535156v192c0 2.839844 1.132813 5.546875 3.117188 7.554688 9.171875 9.171875 23.742187 14.867187 34.152343 17.960937 12.585938 4.054688 26.5625 6.507813 37.398438 6.507813h195.839844c23.210937 0 43.5625-15.59375 48.425781-37.25 2.347656-11.113281.875-22.335938-3.96875-32.042969 15.765625-7.957031 26.371094-24.234375 26.371094-42.730469 0-7.550781-1.730469-14.804687-4.972657-21.332031 15.722657-7.9375 26.304688-24.191406 26.304688-42.667969zm0 0"
              fill="#ffcc80"/>
        <path d="m160 213.332031h-106.667969c-29.417969 0-53.332031 23.914063-53.332031 53.335938v170.664062c0 29.421875 23.914062 53.335938 53.332031 53.335938h64c29.421875 0 53.335938-23.914063 53.335938-53.335938v-213.332031c0-5.886719-4.78125-10.667969-10.667969-10.667969zm0 0"
              fill="#2196f3"/>
        <path d="m117.332031 490.667969h-64c-29.394531 0-53.332031-23.914063-53.332031-53.335938v-170.664062c0-29.421875 23.9375-53.335938 53.332031-53.335938h106.667969c5.886719 0 10.667969 4.78125 10.667969 10.667969v4.074219l2.558593-1.300781 61.441407-133.097657v-72.34375c0-3.242187 1.46875-6.3125 3.988281-8.339843.683594-.511719 16.511719-12.992188 38.675781-12.992188 24.683594 0 64 39.0625 64 85.332031 0 29.183594-10.453125 65.515625-16.957031 85.335938h131.753906c28.714844 0 53.160156 21.246093 55.636719 48.363281 1.386719 15.1875-3.667969 29.800781-13.632813 40.722656 8.769532 8.8125 13.867188 20.757813 13.867188 33.578125 0 18.496094-10.601562 34.753907-26.347656 42.6875 3.285156 6.53125 5.015625 13.761719 5.015625 21.3125 0 18.496094-10.605469 34.773438-26.371094 42.6875 4.867187 9.730469 6.296875 20.929688 3.839844 32.066407-4.777344 21.589843-25.085938 37.246093-48.316407 37.246093h-195.820312c-14.828125 0-38.742188-4.796875-56.46875-13.929687-7.425781 20.542968-27.117188 35.265625-50.199219 35.265625zm-64-256c-17.640625 0-32 14.355469-32 32v170.664062c0 17.644531 14.359375 32 32 32h64c17.644531 0 32-14.355469 32-32 0-4.308593 2.605469-8.210937 6.59375-9.855469 4.011719-1.621093 8.574219-.722656 11.625 2.304688 10.070313 10.089844 39.105469 18.21875 56.449219 18.21875h195.820312c13.308594 0 24.871094-8.617188 27.496094-20.523438 2.113282-9.554687-.703125-18.835937-7.722656-25.449218-3.027344-2.859375-4.117188-7.191406-2.816406-11.136719 1.324218-3.945313 4.800781-6.742187 8.917968-7.230469 13.460938-1.558594 23.636719-12.867187 23.636719-26.328125 0-7.335937-2.984375-14.207031-8.425781-19.304687-3.027344-2.859375-4.117188-7.191406-2.816406-11.136719 1.324218-3.945313 4.800781-6.742187 8.917968-7.230469 13.484376-1.558594 23.660157-12.867187 23.660157-26.328125 0-9.941406-5.589844-18.984375-14.59375-23.570312-3.433594-1.773438-5.652344-5.226563-5.78125-9.089844-.148438-3.859375 1.769531-7.488281 5.054687-9.492187 10.496094-6.464844 16.320313-18.050782 15.191406-30.1875-1.492187-16.257813-16.597656-28.972657-34.390624-28.972657h-146.816407c-3.519531 0-6.78125-1.726562-8.789062-4.605469-1.984375-2.902343-2.429688-6.59375-1.195313-9.855468.214844-.554688 20.652344-54.679688 20.652344-92.226563 0-34.941406-30.976562-64-42.667969-64-9.195312 0-16.894531 3.328125-21.332031 5.78125v68.886719c0 1.535156-.339844 3.070312-.980469 4.480469l-64 138.667969c-1.023437 2.195312-2.753906 3.988281-4.90625 5.054687l-21.335937 10.667969c-3.328125 1.621094-7.230469 1.425781-10.367188-.449219-3.15625-1.964844-5.078125-5.398437-5.078125-9.089844v-10.664062zm0 0"/>
        <path d="m160 448c-5.886719 0-10.667969-4.777344-10.667969-10.667969v-192c0-5.886719 4.78125-10.664062 10.667969-10.664062s10.667969 4.777343 10.667969 10.664062v192c0 5.890625-4.78125 10.667969-10.667969 10.667969zm0 0"/>
    </g>
    <g id="delete">
        <path d="m7 13.967 7.09 44.033h35.82l7.09-44.033z" fill="#4370ff"/>
        <path d="m21.647 21.712h4v28.575h-4z" transform="matrix(.987 -.158 .158 .987 -5.398 4.195)"/>
        <path d="m26.065 34h28.575v4h-28.575z" transform="matrix(.158 -.987 .987 .158 -1.582 70.144)"/>
        <path d="m63 15.967v-11.967h-62v4h58v3.967h-58v4h4.3l7.086 44.033h39.228l6.446-40.033h-4.052l-5.802 36.033h-32.412l-6.446-40.033z"/>
    </g>
</svg>



