<svg viewBox="0 0 512 512" xmlns="http://www.w3.org/2000/svg" xmlns:xlink="http://www.w3.org/1999/xlink"><linearGradient id="a" gradientTransform="matrix(1 0 0 -1 0 -14274)" gradientUnits="userSpaceOnUse" x1="0" x2="512" y1="-14530" y2="-14530"><stop offset="0" stop-color="#31d8ff"/><stop offset="1" stop-color="#ff80ff"/></linearGradient><path d="m512 256c0 141.386719-114.613281 256-256 256s-256-114.613281-256-256 114.613281-256 256-256 256 114.613281 256 256zm0 0" fill="url(#a)"/><g fill="#fff"><path d="m309.304688 235.976562c20.199218-16.421874 33.132812-41.457031 33.132812-69.457031 0-49.335937-40.140625-89.480469-89.480469-89.480469-49.339843 0-89.476562 40.140626-89.476562 89.480469 0 28 12.929687 53.035157 33.132812 69.457031-62.734375 23.027344-107.613281 83.359376-107.613281 153.980469 0 8.285157 6.714844 15 15 15h297.914062c8.285157 0 15-6.714843 15-15 0-70.621093-44.875-130.953125-107.609374-153.980469zm-56.347657-128.933593c32.796875 0 59.480469 26.679687 59.480469 59.476562s-26.683594 59.480469-59.480469 59.480469-59.476562-26.683594-59.476562-59.480469 26.679687-59.476562 59.476562-59.476562zm-133.121093 267.914062c7.480468-66.828125 64.328124-118.957031 133.125-118.957031 68.789062 0 125.640624 52.128906 133.121093 118.957031zm0 0"/><path d="m428 151.519531h-52.167969c-8.285156 0-15 6.714844-15 15 0 8.285157 6.714844 15 15 15h52.167969c8.285156 0 15-6.714843 15-15 0-8.285156-6.714844-15-15-15zm0 0"/></g></svg>